<svg xmlns="http://www.w3.org/2000/svg" width="256" height="256"><path fill-opacity=".016" d="M0 128.004v128.004l128.25-.254 128.25-.254.254-127.75L257.008 0H0v128.004m.485.496c0 70.4.119 99.053.265 63.672.146-35.38.146-92.98 0-128C.604 29.153.485 58.1.485 128.5" fill="#1976D2" fill-rule="evenodd"/><path fill-opacity=".139" d="M119 4.09c-9.509 5.847-15.522 7.41-28.5 7.41-12.694 0-18.901-1.55-27.871-6.959-3.229-1.948-6.154-3.505-6.5-3.461-.533.068-21.856 23.882-34.414 38.433l-3.784 4.386 3.49 4.858c17.866 24.868 18.045 62.008.411 85.237-2.293 3.021-5.269 8.196-6.613 11.5-2.316 5.696-2.418 6.806-1.975 21.506.57 18.899 2.986 27.691 10.835 39.426 12.566 18.788 29.808 27.495 54.421 27.484 17.126-.008 31.967 5.61 42.896 16.238 3.309 3.219 6.487 5.845 7.061 5.837.573-.008 3.398-2.423 6.275-5.366 9.424-9.64 24.035-15.652 42.97-17.682 25.333-2.716 39.282-9.654 51.572-25.653 9.977-12.988 12.836-21.974 13.454-42.284.449-14.719.346-15.833-2.033-22.117-1.378-3.64-4.155-8.779-6.172-11.421-18.492-24.226-18.681-62.029-.429-86.202l4.046-5.359-19.188-19.951C208.399 8.978 199.151 0 198.402 0c-.75 0-3.734 1.508-6.633 3.351-10.35 6.582-15.847 8.072-29.769 8.072-13.922 0-19.419-1.49-29.769-8.072-2.899-1.843-5.599-3.33-6-3.304-.402.026-3.656 1.845-7.231 4.043M64 56.75V71h127V43.029l-63.5-.264L64 42.5v14.25m9.338-5.933c-.354 1.351-1.196 1.711-3.288 1.404-3.316-.487-5.206 1.647-2.802 3.163 1.452.917 1.454 1.113.022 2.16-2.329 1.704-.545 3.723 2.848 3.225 1.969-.289 2.882.008 2.882.936 0 1.943 2.763 2.737 4.502 1.294.812-.674 1.287-1.531 1.057-1.903-.23-.373 1.125-.498 3.011-.278 3.556.416 4.641-1.207 2.343-3.505-.783-.783-.783-1.275 0-1.759.598-.37 1.087-1.379 1.087-2.244 0-1.248-.746-1.451-3.624-.984-1.993.324-3.347.312-3.009-.027.893-.892-1.356-3.299-3.083-3.299-.809 0-1.685.818-1.946 1.817m34.549-.008c-.791 1.268-1.991 1.683-4.008 1.387-3.026-.445-3.942 1.341-1.792 3.491.783.783.783 1.275 0 1.759-.598.37-1.087 1.372-1.087 2.227 0 1.143.76 1.442 2.879 1.131 2.017-.296 3.217.119 4.008 1.387 1.457 2.332 4.164 2.328 4.775-.008.354-1.351 1.196-1.711 3.288-1.404 3.316.487 5.206-1.647 2.802-3.163-1.452-.917-1.454-1.113-.022-2.16 2.302-1.684.549-3.724-2.78-3.235-2.092.307-2.934-.053-3.288-1.404-.611-2.336-3.318-2.34-4.775-.008m34.451.008c-.354 1.351-1.196 1.711-3.288 1.404-3.316-.487-5.206 1.647-2.802 3.163 1.452.917 1.454 1.113.022 2.16-2.302 1.684-.549 3.724 2.78 3.235 2.092-.307 2.934.053 3.288 1.404.627 2.397 4.697 2.397 5.324 0 .354-1.351 1.196-1.711 3.288-1.404 3.274.481 4.707-1.086 2.705-2.956-1.182-1.105-1.163-1.462.131-2.409 2.253-1.647.452-3.676-2.836-3.193-2.092.307-2.934-.053-3.288-1.404C147.386 49.76 146.273 49 145 49s-2.386.76-2.662 1.817m35 0c-.354 1.351-1.196 1.711-3.288 1.404-3.316-.487-5.206 1.647-2.802 3.163 1.452.917 1.454 1.113.022 2.16-2.329 1.704-.545 3.723 2.848 3.225 1.969-.289 2.882.008 2.882.936 0 .747.681 1.619 1.513 1.938 1.701.653 4.742-1.421 3.954-2.697-.282-.455 1.073-.57 3.011-.256 3.661.594 4.811-1.001 2.435-3.377-.783-.783-.783-1.275 0-1.759.598-.37 1.087-1.379 1.087-2.244 0-1.248-.746-1.451-3.624-.984-1.993.324-3.347.312-3.009-.027.893-.892-1.356-3.299-3.083-3.299-.809 0-1.685.818-1.946 1.817M89.314 82.95c-3.786 2.309-5.025 4.389-5.91 9.925L82.744 97h3.628C89.736 97 90 96.782 90 94c0-3.789 3.14-7 6.845-7 6.842 0 8.256 7.96 2.706 15.23-1.897 2.484-4.106 4.769-4.908 5.077-.803.308-3.751 3.313-6.551 6.678-3.955 4.753-5.092 6.889-5.092 9.567V127h27.579l-.04-2.75-.039-2.75-10-.5-10-.5 7.162-7c3.939-3.85 8.326-8.75 9.75-10.89 4.596-6.907 2.927-16.832-3.379-20.093-4.08-2.11-10.877-1.91-14.719.433M118 104.132V127h6v-19h16.579l-.04-2.75c-.039-2.725-.112-2.755-8.039-3.25l-8-.5-.296-6.75-.295-6.75H143v-6.894l-12.5.078-12.5.079v22.869m30.509-1.882a78173.26 78173.26 0 00-6.268 23c-.386 1.424.179 1.75 3.035 1.75 3.442 0 3.535-.109 4.909-5.75l1.4-5.75 7.157-.293 7.158-.293 1.109 4.293c.611 2.361 1.339 5.08 1.618 6.043.36 1.241 1.536 1.75 4.047 1.75 2.403 0 3.397-.402 3.095-1.25-.245-.687-3.086-11.037-6.314-23L163.585 81h-9.282l-5.794 21.25m7.648-3.38c-1.186 4.329-2.157 8.379-2.157 9 0 .689 1.951 1.13 5 1.13 2.75 0 5-.241 5-.536 0-2.029-4.389-17.464-4.966-17.464-.396 0-1.691 3.542-2.877 7.87M108 155.084c-5.662 2.567-8.775 5.461-10.625 9.879-3.233 7.718-9.533 11.329-19.875 11.394-3.85.024-8.013-.512-9.25-1.192-2.016-1.107-2.25-1.014-2.25.899 0 10.043 29.192 14.074 48.8 6.738 2.92-1.093 7.085-3.676 9.255-5.74L128 173.31l3.945 3.752c9.024 8.585 27.291 11.644 46.767 7.832 5.867-1.148 11.288-5.389 11.288-8.83 0-1.913-.234-2.006-2.25-.899-1.238.68-5.4 1.216-9.25 1.192-10.342-.065-16.642-3.676-19.875-11.394-2.84-6.781-9.717-10.96-19.3-11.729-4.809-.386-6.859-.114-8.82 1.171-2.313 1.515-2.763 1.528-4.752.134-3.177-2.225-12.259-1.946-17.753.545" fill="#1976D2" fill-rule="evenodd"/><path fill-opacity=".514" d="M119.821 3.929C103.061 15.068 78.933 15.341 62 4.585l-5.5-3.494-2.125 2.204c-1.168 1.213-9.796 10.806-19.172 21.317L18.155 43.725l3.508 4.887c17.761 24.752 18.378 58.667 1.525 83.727-3.019 4.488-6.598 10.861-7.953 14.161-2.325 5.661-2.435 6.79-1.954 20 .827 22.742 5.472 34.966 18.468 48.61 7.154 7.511 14.064 12.085 23.422 15.505 2.652.969 10.141 1.906 19.329 2.418 23.493 1.31 34.443 5.231 46.582 16.683l6.883 6.493 6.702-6.141c11.273-10.33 25.187-15.739 46.333-18.012 20.403-2.194 30.732-6.897 42.838-19.507C237.353 198.472 243 183.47 243 161.647c0-12.904-2.254-20.951-8.035-28.681-10.238-13.69-14.428-26.766-14.407-44.966.02-17.522 4.087-30.831 12.981-42.483 1.903-2.494 3.461-4.896 3.461-5.338C237 39.178 200.505.668 199.118.206c-.556-.185-4.072 1.512-7.814 3.772-18.702 11.293-39.867 11.317-58.499.065-3.683-2.224-6.833-4.008-7-3.965-.168.042-2.86 1.776-5.984 3.851M64 56.5V71h127V42H64v14.5m9-5.025c0 1.106-.751 1.325-3 .875-2.318-.464-3-.242-3 .975 0 .867.724 1.981 1.609 2.476 1.48.828 1.48.951 0 1.519-.885.339-1.609 1.363-1.609 2.274 0 1.307.633 1.529 3 1.056 2.164-.433 3-.219 3 .768 0 1.559 1.899 2.497 3.75 1.851.688-.239 1.25-1.062 1.25-1.827 0-1 .81-1.23 2.879-.816 3.383.676 5.388-1.424 2.873-3.01-1.452-.917-1.454-1.113-.022-2.16 2.419-1.769.577-3.682-2.825-2.935-2.25.494-2.905.282-2.905-.942C78 50.561 77.111 50 75.5 50c-1.537 0-2.5.568-2.5 1.475m35 .104c0 1.224-.655 1.436-2.905.942-3.385-.744-5.382 1.265-2.847 2.863 1.452.917 1.454 1.113.022 2.16-2.419 1.769-.577 3.682 2.825 2.935 2.18-.479 2.905-.271 2.905.835 0 2.349 2.884 2.845 4.209.723.882-1.413 1.916-1.762 3.991-1.347 2.165.433 2.8.184 2.8-1.096 0-.911-.688-1.921-1.529-2.244-1.339-.513-1.32-.74.152-1.817 2.28-1.666.789-3.853-2.128-3.121-1.51.379-2.481.067-2.859-.919-.771-2.01-4.636-1.937-4.636.086m35 0c0 1.224-.655 1.436-2.905.942-3.385-.744-5.382 1.265-2.847 2.863 1.452.917 1.454 1.113.022 2.16-2.364 1.729-.586 3.684 2.695 2.964 2.239-.492 2.879-.214 3.311 1.441C143.571 63.077 144.347 64 145 64s1.429-.923 1.724-2.051c.432-1.655 1.072-1.933 3.311-1.441 3.266.717 5.191-1.332 2.717-2.892-1.452-.917-1.454-1.113-.022-2.16 2.419-1.769.577-3.682-2.825-2.935-2.25.494-2.905.282-2.905-.942 0-.912-.844-1.579-2-1.579-1.156 0-2 .667-2 1.579m34.378-.122c-.391 1.018-1.435 1.282-3.468.875-2.228-.446-2.91-.213-2.91.993 0 .867.724 1.981 1.609 2.476 1.48.828 1.48.951 0 1.519-.885.339-1.609 1.363-1.609 2.274 0 1.307.633 1.529 3 1.056 2.184-.437 3-.221 3 .792 0 .765.563 1.588 1.25 1.827 1.851.646 3.75-.292 3.75-1.851 0-.974.829-1.202 2.879-.792 3.383.676 5.388-1.424 2.873-3.01-1.452-.917-1.454-1.113-.022-2.16 2.419-1.769.577-3.682-2.825-2.935-2.25.494-2.905.282-2.905-.942 0-2.003-3.861-2.105-4.622-.122M93.5 80.932C86.948 82.513 83 87.39 83 93.901c0 2.856.266 3.099 3.389 3.099 3.082 0 3.448-.317 4.046-3.508 1.276-6.799 9.789-8.437 11.959-2.301 1.577 4.462-.287 7.821-9.941 17.909C83.729 118.217 83 119.288 83 122.989V127h28v-7.189l-9.501.345c-5.225.189-9.5.165-9.5-.054.001-.219 3.796-4.335 8.435-9.146 9.532-9.888 11.432-14.027 9.586-20.883-1.137-4.221-5.958-9.073-9.015-9.073-1.013 0-2.441-.178-3.173-.396-.733-.217-2.682-.07-4.332.328m23.5 23.599v23.59l3.75-.311 3.75-.31.286-9.75.286-9.75H141v-7h-16V88H144.127l-.314-3.25-.313-3.25-13.25-.279-13.25-.279v23.589m36.517-22.281c-.231.688-3.076 11.037-6.322 23L141.292 127h3.885c2.218 0 4.066-.536 4.305-1.25.231-.687.909-3.162 1.507-5.5l1.088-4.25h13.634l1.398 5.25c1.345 5.052 1.539 5.262 5.144 5.56 2.432.202 3.747-.113 3.747-.897 0-1.076-6.64-25.861-10.626-39.663L163.858 81h-4.96c-3.078 0-5.12.474-5.381 1.25m3.017 17c-1.018 3.987-2.053 7.813-2.3 8.5-.315.88.868 1.25 3.992 1.25 2.443 0 4.66-.22 4.929-.488.615-.616-3.427-16.512-4.199-16.512-.314 0-1.404 3.263-2.422 7.25M112.5 152.938c-7.811 1.91-14.122 6.966-15.917 12.75-.984 3.172-6.928 8.036-11.306 9.252-4.931 1.369-12.163 1.344-16.179-.056-3.969-1.383-4.701-.732-3.185 2.834 2.484 5.845 8.685 8.253 23.184 9.003 16.68.862 30.714-3.326 36.951-11.029l1.753-2.164 2.827 2.827c6.936 6.937 17.973 10.605 31.986 10.63 15.041.028 23.87-2.755 26.963-8.498 2.231-4.142 1.54-5.072-2.675-3.603-4.016 1.4-11.248 1.425-16.179.056-4.378-1.216-10.322-6.08-11.306-9.252-2.931-9.445-19.656-16.709-28.413-12.34-2.851 1.422-3.521 1.436-6.055.126-3.012-1.558-7.482-1.75-12.449-.536" fill="#1976D2" fill-rule="evenodd"/><path fill-opacity=".229" d="M123.941 1.488c-.818.818-4.402 3.058-7.964 4.977-3.563 1.919-6.122 3.5-5.687 3.512 1.327.038 9.017-4.061 12.458-6.641l3.248-2.435 4.728 3.253c4.985 3.43 14.742 7.818 17.276 7.77.825-.015-1.336-1.082-4.802-2.369-3.466-1.287-8.747-3.964-11.735-5.948C128.475 1.623 125.895 0 125.73 0c-.166 0-.971.669-1.789 1.488M196.45.934c-.522.513-3.624 2.538-6.891 4.5C186.291 7.395 184.084 9 184.654 9c.57 0 3.864-1.828 7.321-4.062L198.26.875l2.965 2.813c1.631 1.546 10.167 10.341 18.969 19.544l16.003 16.731-3.475 4.769c-3.441 4.72-8.746 14.474-8.696 15.985.015.431 1.702-2.367 3.75-6.217 2.048-3.85 5.024-8.699 6.613-10.776l2.888-3.777-6.856-7.223C212.271 13.602 198.866 0 198.169 0c-.423 0-1.197.42-1.719.934M39.415 20.258c-23.32 26.153-21.282 22.494-16.46 29.559 2.224 3.258 5.176 8.345 6.56 11.303 1.384 2.959 2.227 4.255 1.874 2.88-.927-3.607-3.088-7.695-7.582-14.343-3.456-5.114-3.776-6.049-2.563-7.5C26.393 36.002 56.218 3 56.631 3c.282 0 2.505 1.168 4.941 2.595 5.976 3.502 5.652 2.465-.407-1.301l-4.834-3.006-16.916 18.97M70.57 9.947c2.239 1.084 6.064 2.227 8.5 2.539 3.737.479 3.413.276-2.07-1.301-3.575-1.028-7.4-2.171-8.5-2.54-1.1-.369-.168.217 2.07 1.302M178 10.5c-1.925.741-2.825 1.362-2 1.379.825.017 2.85-.587 4.5-1.343 3.862-1.768 2.066-1.794-2.5-.036M100.5 12c-2.722.693-2.768.768-.5.811 1.375.027 3.4-.338 4.5-.811 2.466-1.06.164-1.06-4 0m50.25.662c.688.278 1.813.278 2.5 0 .688-.277.125-.504-1.25-.504s-1.937.227-1.25.504m20 0c.688.278 1.813.278 2.5 0 .688-.277.125-.504-1.25-.504s-1.937.227-1.25.504m-84.022 1.06c1.775.221 4.925.224 7 .008 2.074-.217.622-.397-3.228-.402-3.85-.004-5.548.173-3.772.394m72.022.001c1.787.222 4.713.222 6.5 0 1.787-.221.325-.403-3.25-.403s-5.037.182-3.25.403M63.225 56.75L63.5 72.5h128l.275-15.75.276-15.75H62.949l.276 15.75M64 57v15h127V42H64v15m3.459-3.933c-.363.586-.445 1.281-.183 1.543s.743-.218 1.069-1.067c.676-1.762.1-2.072-.886-.476m154.112 14.504c-.367 1.466-.475 2.858-.24 3.094.236.235.73-.771 1.098-2.236.367-1.466.475-2.858.24-3.094-.236-.235-.73.771-1.098 2.236M33.17 71c.016.825.39 2.625.83 4 .644 2.01.806 2.108.83.5.016-1.1-.357-2.9-.83-4-.527-1.225-.848-1.419-.83-.5m187.025 3.5c.02 1.65.244 2.204.498 1.231.254-.973.237-2.323-.037-3-.274-.677-.481.119-.461 1.769M35.232 81c0 1.925.206 2.713.457 1.75.252-.963.252-2.537 0-3.5-.251-.963-.457-.175-.457 1.75m184.142 7.5c.002 6.05.167 8.396.366 5.213.199-3.182.197-8.132-.004-11-.201-2.867-.364-.263-.362 5.787m-102.943 16c.001 13.2.143 18.462.316 11.693.174-6.769.173-17.569-.001-24-.174-6.431-.315-.893-.315 12.307M85.405 84.25L83.5 86.5l2.25-1.905c1.237-1.048 2.25-2.06 2.25-2.25 0-.8-.805-.209-2.595 1.905m58.79.25c.02 1.65.244 2.204.498 1.231.254-.973.237-2.323-.037-3-.274-.677-.481.119-.461 1.769m-107.867 7c.005 3.85.185 5.302.402 3.228.216-2.075.213-5.225-.008-7-.221-1.776-.398-.078-.394 3.772M99 88.378c0 .207.787.995 1.75 1.75 1.586 1.243 1.621 1.208.378-.378C99.821 88.084 99 87.555 99 88.378m26.193 6.372l.192 6.75.354-6.213.355-6.213 9.203-.33 9.203-.329-9.75-.207L125 88l.193 6.75m-13.998-.25c.02 1.65.244 2.204.498 1.231.254-.973.237-2.323-.037-3-.274-.677-.481.119-.461 1.769m37.884.083c.048 1.165.285 1.402.604.605.289-.722.253-1.585-.079-1.917-.332-.332-.568.258-.525 1.312m8.921-.701c0 .55.45 1.278 1 1.618.55.34 1 .168 1-.382s-.45-1.278-1-1.618c-.55-.34-1-.168-1 .382m10.079.701c.048 1.165.285 1.402.604.605.289-.722.253-1.585-.079-1.917-.332-.332-.568.258-.525 1.312M35.195 102.5c.02 1.65.244 2.204.498 1.231.254-.973.237-2.323-.037-3-.274-.677-.481.119-.461 1.769m184.963-.5c0 1.375.227 1.938.504 1.25.278-.687.278-1.812 0-2.5-.277-.687-.504-.125-.504 1.25m-112.647 1.623c-.945 1.443-1.224 2.318-.62 1.944 1.154-.713 3.483-4.567 2.759-4.567-.231 0-1.193 1.18-2.139 2.623m33.741.877c.011 2.2.216 2.982.455 1.738.239-1.244.23-3.044-.02-4s-.446.062-.435 2.262m13.827 2.083c.048 1.165.285 1.402.604.605.289-.722.253-1.585-.079-1.917-.332-.332-.568.258-.525 1.312m7 0c.048 1.165.285 1.402.604.605.289-.722.253-1.585-.079-1.917-.332-.332-.568.258-.525 1.312m59 0c.048 1.165.285 1.402.604.605.289-.722.253-1.585-.079-1.917-.332-.332-.568.258-.525 1.312M34.158 108c0 1.375.227 1.938.504 1.25.278-.687.278-1.812 0-2.5-.277-.687-.504-.125-.504 1.25m137.921 1.583c.048 1.165.285 1.402.604.605.289-.722.253-1.585-.079-1.917-.332-.332-.568.258-.525 1.312m-46.714 8.917c.003 5.5.171 7.622.373 4.716.203-2.905.201-7.405-.004-10-.206-2.594-.371-.216-.369 5.284m96.682-8.77c-.059 1.537 3.077 9.48 3.554 9.002.193-.192-.517-2.574-1.578-5.291-1.061-2.718-1.95-4.388-1.976-3.711M32.2 114.7c-1.48 4.822-.764 5.538.8.8.66-1.999 1.005-3.828.767-4.066-.237-.238-.943 1.232-1.567 3.266m111.879-2.117c.048 1.165.285 1.402.604.605.289-.722.253-1.585-.079-1.917-.332-.332-.568.258-.525 1.312m-58.674 2.667L83.5 117.5l2.25-1.905c1.237-1.048 2.25-2.06 2.25-2.25 0-.8-.805-.209-2.595 1.905m10 1L93.5 118.5l2.25-1.905c1.237-1.048 2.25-2.06 2.25-2.25 0-.8-.805-.209-2.595 1.905m56.593.5c-.001.412 2.759.595 6.132.405 4.358-.246 6.381.044 6.987 1 .658 1.039.856.947.868-.405.013-1.501-.979-1.75-6.985-1.75-3.85 0-7.001.338-7.002.75m-69.539 2.317c-.363.586-.445 1.281-.183 1.543s.743-.218 1.069-1.067c.676-1.762.1-2.072-.886-.476m-54.631 6.211c-1.409 2.872-4.197 7.363-6.195 9.981-4.644 6.082-4.768 7.452-.148 1.632 3.695-4.655 9.982-15.757 9.306-16.434-.221-.22-1.555 1.949-2.963 4.821m83.424-1.778c.011 2.2.216 2.982.455 1.738.239-1.244.23-3.044-.02-4s-.446.062-.435 2.262m54.827-1.917c.048 1.165.285 1.402.604.605.289-.722.253-1.585-.079-1.917-.332-.332-.568.258-.525 1.312m59.921-.642c0 .518.445 1.216.989 1.552.566.35.734-.051.393-.941-.665-1.732-1.382-2.049-1.382-.611m-75.921 3.642c.048 1.165.285 1.402.604.605.289-.722.253-1.585-.079-1.917-.332-.332-.568.258-.525 1.312M229.103 126c.639 1.375 2.618 4.304 4.398 6.508 1.78 2.205 4.396 7.155 5.813 11 1.417 3.846 2.601 6.446 2.631 5.78.117-2.59-4.367-12.824-7.33-16.731a416.77 416.77 0 01-4.894-6.582l-1.779-2.475 1.161 2.5m-139.897 2.741c3.689.191 9.989.193 14 .002 4.012-.19.994-.347-6.706-.348-7.7-.002-10.982.154-7.294.346m-73.044 15.802c-1.675 3.677-1.355 4.462.456 1.119.846-1.562 1.351-3.026 1.123-3.255-.229-.228-.939.733-1.579 2.136M242.37 161c0 5.775.165 8.137.367 5.25.202-2.887.202-7.613 0-10.5-.202-2.887-.367-.525-.367 5.25m-228.996 1.5c.002 6.05.167 8.396.366 5.213.199-3.182.197-8.132-.004-11-.201-2.867-.364-.263-.362 5.787m227.821 13c.02 1.65.244 2.204.498 1.231.254-.973.237-2.323-.037-3-.274-.677-.481.119-.461 1.769M14.232 177c0 1.925.206 2.713.457 1.75.252-.963.252-2.537 0-3.5-.251-.963-.457-.175-.457 1.75m225.393 5.125c-.834 4.168-.026 4.976.875.875.38-1.729.482-3.351.227-3.606-.255-.255-.751.974-1.102 2.731m-224.459.375c-.013 2.129 2.565 10.692 2.71 9 .047-.55-.541-3.25-1.306-6s-1.397-4.1-1.404-3m2.865 11c0 .55.436 1.675.969 2.5.533.825.969 1.05.969.5s-.436-1.675-.969-2.5c-.533-.825-.969-1.05-.969-.5m215.716 4.58c-1.51 2.706-2.541 4.92-2.289 4.92.683 0 5.845-9.03 5.411-9.465-.206-.206-1.611 1.84-3.122 4.545m-210.054 6.997c.994 1.692 2.446 3.605 3.227 4.25.781.645.159-.739-1.383-3.077-3.237-4.908-4.513-5.72-1.844-1.173M223 211.935c-4.125 4.29-9.975 9.206-13 10.924-3.025 1.717-5.026 3.126-4.446 3.132 2.032.018 10.996-6.225 16.274-11.334 4.576-4.429 9.982-10.798 8.99-10.591-.175.037-3.693 3.578-7.818 7.869m-188.861 5.266c3.196 3.136 6.835 6.198 8.086 6.806 1.499.727 1.251.325-.725-1.179-1.65-1.255-5.289-4.318-8.086-6.805-4.404-3.917-4.307-3.759.725 1.178m12.302 9.244c1.068.855 2.38 1.555 2.917 1.555 1.27 0 .703-.462-2.358-1.92-2.357-1.122-2.389-1.102-.559.365M199 227.5c-1.925.741-2.825 1.362-2 1.379.825.017 2.85-.587 4.5-1.343 3.862-1.768 2.066-1.794-2.5-.036m-145.5 2.036c1.65.756 3.675 1.36 4.5 1.343.825-.017-.075-.638-2-1.379-4.566-1.758-6.362-1.732-2.5.036m139.313.147c.721.289 1.584.253 1.916-.079.332-.332-.258-.568-1.312-.525-1.165.048-1.402.285-.604.604m-14.21 1.416c-4.344.458-8.394 1.048-9 1.311-1.744.756 15.615-.643 18.397-1.483 3.228-.975 1.109-.936-9.397.172m-117.853.563c.688.278 1.813.278 2.5 0 .688-.277.125-.504-1.25-.504s-1.937.227-1.25.504m9.5 1.077c3.162.198 8.337.198 11.5 0 3.162-.198.575-.361-5.75-.361s-8.913.163-5.75.361m18.5.923c.688.278 1.813.278 2.5 0 .688-.277.125-.504-1.25-.504s-1.937.227-1.25.504m76 0c.688.278 1.813.278 2.5 0 .688-.277.125-.504-1.25-.504s-1.937.227-1.25.504m-66.722 2.126c9.311 3.13 18.163 8.429 24.29 14.543l5.844 5.831 6.169-5.849c3.393-3.217 7.294-6.642 8.669-7.61l2.5-1.761-2.5 1.193c-1.375.656-5.229 3.81-8.564 7.009l-6.064 5.816-6.009-5.844c-6.362-6.187-19.809-13.662-26.363-14.655-2.474-.375-1.879.014 2.028 1.327m58.16-.105c-2.372.839-4.136 1.702-3.92 1.918.216.216 2.831-.473 5.812-1.531 2.981-1.058 4.745-1.921 3.92-1.918-.825.003-3.441.692-5.812 1.531m-8.747 3.872c-1.83 1.467-1.798 1.487.559.365 3.061-1.458 3.628-1.92 2.358-1.92-.537 0-1.849.7-2.917 1.555" fill="#1976D2" fill-rule="evenodd"/></svg>